<svg id="Capa_1" enable-background="new 0 0 512 512" height="512" viewBox="0 0 512 512" width="512" xmlns="http://www.w3.org/2000/svg"><g><path d="m458.296 0h-251.043c-16.533 0-30.061 13.527-30.061 30.061v171.805h126.524c16.533 0 30.061 13.527 30.061 30.061v79.237h124.518c16.533 0 30.061-13.527 30.061-30.061v-251.042c0-16.534-13.527-30.061-30.06-30.061z" fill="#dbedff"/><g fill="#b5dcff"><path d="m351.793 201.866h-48.077c16.534 0 30.061 13.527 30.061 30.061v79.237h48.077v-79.237c0-16.533-13.528-30.061-30.061-30.061z"/><path d="m255.33 0h-48.076c-16.533 0-30.061 13.527-30.061 30.061v171.805h48.076v-171.805c0-16.534 13.527-30.061 30.061-30.061z"/></g><path d="m304.747 200.836h-251.043c-16.533 0-30.061 13.527-30.061 30.061v251.042c0 16.533 13.527 30.061 30.061 30.061h251.042c16.533 0 30.061-13.527 30.061-30.061v-251.042c.001-16.534-13.527-30.061-30.06-30.061z" fill="#dbedff"/><path d="m71.72 481.939v-251.042c0-16.533 13.527-30.061 30.061-30.061h-48.077c-16.533 0-30.061 13.527-30.061 30.061v251.042c0 16.533 13.528 30.061 30.061 30.061h48.076c-16.533 0-30.06-13.527-30.06-30.061z" fill="#b5dcff"/><g><circle cx="389.889" cy="212.696" fill="#f87c68" r="22.569"/><path d="m395.049 228.655c-8.814-8.814-8.814-23.104 0-31.917 1.634-1.634 3.458-2.962 5.399-3.99-8.527-4.517-19.339-3.189-26.518 3.99-8.814 8.814-8.814 23.103 0 31.917 7.18 7.18 17.991 8.507 26.518 3.99-1.941-1.028-3.764-2.356-5.399-3.99z" fill="#ec625e"/></g><g><circle cx="332.774" cy="155.582" fill="#f87c68" r="22.569"/><path d="m337.935 171.541c-8.814-8.814-8.814-23.104 0-31.917 1.634-1.634 3.458-2.962 5.399-3.99-8.527-4.517-19.339-3.189-26.518 3.99-8.814 8.814-8.814 23.103 0 31.917 7.18 7.18 17.991 8.507 26.518 3.99-1.941-1.028-3.765-2.356-5.399-3.99z" fill="#ec625e"/></g><g><circle cx="275.66" cy="98.468" fill="#f87c68" r="22.569"/><path d="m280.821 114.426c-8.814-8.814-8.814-23.104 0-31.917 1.634-1.634 3.458-2.962 5.399-3.99-8.527-4.517-19.339-3.189-26.518 3.99-8.814 8.814-8.814 23.103 0 31.917 7.18 7.18 17.991 8.507 26.518 3.99-1.941-1.027-3.765-2.355-5.399-3.99z" fill="#ec625e"/></g><g><circle cx="130.69" cy="273.345" fill="#f87c68" r="22.569"/><path d="m135.85 289.304c-8.814-8.814-8.814-23.104 0-31.917 1.634-1.634 3.458-2.962 5.399-3.99-8.527-4.517-19.339-3.189-26.518 3.99-8.814 8.814-8.814 23.103 0 31.917 7.18 7.18 17.991 8.507 26.518 3.99-1.941-1.028-3.764-2.356-5.399-3.99z" fill="#ec625e"/></g><g><circle cx="227.761" cy="273.345" fill="#f87c68" r="22.569"/><path d="m232.922 289.304c-8.814-8.814-8.814-23.104 0-31.917 1.634-1.634 3.458-2.962 5.399-3.99-8.527-4.517-19.339-3.189-26.518 3.99-8.814 8.814-8.814 23.103 0 31.917 7.18 7.18 17.991 8.507 26.518 3.99-1.941-1.028-3.765-2.356-5.399-3.99z" fill="#ec625e"/></g><g><circle cx="130.69" cy="354.117" fill="#f87c68" r="22.569"/><path d="m135.85 370.075c-8.814-8.814-8.814-23.104 0-31.917 1.634-1.634 3.458-2.962 5.399-3.99-8.527-4.517-19.339-3.189-26.518 3.99-8.814 8.814-8.814 23.103 0 31.917 7.18 7.18 17.991 8.507 26.518 3.99-1.941-1.028-3.764-2.356-5.399-3.99z" fill="#ec625e"/></g><g><circle cx="227.761" cy="354.117" fill="#f87c68" r="22.569"/><path d="m232.922 370.075c-8.814-8.814-8.814-23.104 0-31.917 1.634-1.634 3.458-2.962 5.399-3.99-8.527-4.517-19.339-3.189-26.518 3.99-8.814 8.814-8.814 23.103 0 31.917 7.18 7.18 17.991 8.507 26.518 3.99-1.941-1.028-3.765-2.356-5.399-3.99z" fill="#ec625e"/></g><g><circle cx="130.69" cy="434.888" fill="#f87c68" r="22.569"/><path d="m135.85 450.847c-8.814-8.814-8.814-23.104 0-31.917 1.634-1.634 3.458-2.962 5.399-3.99-8.527-4.517-19.339-3.189-26.518 3.99-8.814 8.814-8.814 23.103 0 31.917 7.18 7.18 17.991 8.507 26.518 3.99-1.941-1.028-3.764-2.356-5.399-3.99z" fill="#ec625e"/></g><g><circle cx="227.761" cy="434.888" fill="#f87c68" r="22.569"/><path d="m232.922 450.847c-8.814-8.814-8.814-23.104 0-31.917 1.634-1.634 3.458-2.962 5.399-3.99-8.527-4.517-19.339-3.189-26.518 3.99-8.814 8.814-8.814 23.103 0 31.917 7.18 7.18 17.991 8.507 26.518 3.99-1.941-1.028-3.765-2.356-5.399-3.99z" fill="#ec625e"/></g></g></svg>